{"title":"The Demented 2013 BRRip 720p x264 AAC - PRiSTiNE [P2PDL]","uid":8664784,"size":637142350,"categoryP":"video","categoryS":"hd___movies","magnet":"?xt=urn:btih:d103ad1b08bfdd9d7def314922d17c0bec65ecb1&amp;dn=The+Demented+2013+BRRip+720p+x264+AAC+-+PRiSTiNE+%5BP2PDL%5D&amp;tr=udp%3A%2F%2Ftracker.openbittorrent.com%3A80&amp;tr=udp%3A%2F%2Fopen.demonii.com%3A1337&amp;tr=udp%3A%2F%2Ftracker.coppersurfer.tk%3A6969&amp;tr=udp%3A%2F%2Fexodus.desync.com%3A6969","seeders":1,"leechers":0,"uploader":"ValidusVyto","files":-1,"time":1373390661,"description":"_______ Visit us at our Semi Public Bittorrent Community ________\n  &lt;a href=&quot;\nhttp://p2pdl.com&quot; rel=&quot;nofollow&quot; target=&quot;_NEW&quot;&gt;\nhttp://p2pdl.com&lt;/a&gt;  _____________________________ &lt;a href=&quot; http://p2pdl.com&quot; rel=&quot;nofollow&quot; target=&quot;_NEW&quot;&gt; http://p2pdl.com&lt;/a&gt;\n\n\nThe Demented 2013 BRRip 720p x264 AAC - PRiSTiNE\n\n\nGenre: Drama | Horror | Thriller\nPlot: Six college friends unite for a weekend getaway where they find themselves fighting\nfor their lives after a terrorist attack turns the local residents into rage infused zombies. \nDirector: Christopher Roosevelt\nStars: Kayla Ewell, Richard Kohnke, Ashlee Brian.\nRated: R for violence and language.\n\n\nInfo: &lt;a href=&quot;\nhttp://www.imdb.com/title/tt2113792/&quot; rel=&quot;nofollow&quot; target=&quot;_NEW&quot;&gt;\nhttp://www.imdb.com/title/tt2113792/&lt;/a&gt;\n\nTrailer:\n\n\nFormat                         : MPEG-4\nFile size                      : 601 MiB\nDuration                       : 1h 32mn\nOverall bit rate               : 912 Kbps\nSource                         : 720p.BluRay.AC3-5.1.x264-AXED\n\nVideo\nFormat                         : AVC\nBit rate                       : 830 Kbps\nWidth                          : 1 280 pixels\nHeight                         : 720 pixels\nDisplay aspect ratio           : 16:9\nFrame rate mode                : Constant\nFrame rate                     : 23.976 fps\nStream size                    : 546 MiB (91%)\nWriting library                : x264 core 130 r2273\n\nAudio\nFormat                         : AAC\nBit rate mode                  : Variable\nBit rate                       : 80.0 Kbps\nChannel(s)                     : 2 channels\nChannel positions              : Front: L R\nSampling rate                  : 48.0 KHz\nStream size                    : 52.7 MiB (9%)\nLanguage                       : English\n\nSubtitle                       : N/a\n\n &lt;a href=&quot;\nhttp://someimage.com/xYqMJ7F&quot; rel=&quot;nofollow&quot; target=&quot;_NEW&quot;&gt;\nhttp://someimage.com/xYqMJ7F&lt;/a&gt; &lt;a href=&quot;\nhttp://someimage.com/s6f5NcC&quot; rel=&quot;nofollow&quot; target=&quot;_NEW&quot;&gt;\nhttp://someimage.com/s6f5NcC&lt;/a&gt; &lt;a href=&quot;\nhttp://someimage.com/ImXtIx4&quot; rel=&quot;nofollow&quot; target=&quot;_NEW&quot;&gt;\nhttp://someimage.com/ImXtIx4&lt;/a&gt; &lt;a href=&quot;\nhttp://someimage.com/FAC3htr&quot; rel=&quot;nofollow&quot; target=&quot;_NEW&quot;&gt;\nhttp://someimage.com/FAC3htr&lt;/a&gt; &lt;a href=&quot;\nhttp://someimage.com/6K3FHzB&quot; rel=&quot;nofollow&quot; target=&quot;_NEW&quot;&gt;\nhttp://someimage.com/6K3FHzB&lt;/a&gt; &lt;a href=&quot;\nhttp://someimage.com/lLLEHRA&quot; rel=&quot;nofollow&quot; target=&quot;_NEW&quot;&gt;\nhttp://someimage.com/lLLEHRA&lt;/a&gt;\n\n\n----------------------------------------------------------------------------------------------------\n\n\nEncoded using revolutionary 10bit encoding, which enables us to provide you more crispier \nand sharper images at small sizes, just make sure you follow our instructions without a fault.\nRecommend to you to use latest version of VLC player. Install K-Lite Codec Pack or shark007 codecs\nin case of any kind of problem in playback (For non-VLC Media Player users). Alternatively, install\nCore AVC codecs, the fastest decoder that there is coupled with Community Center Codec Pack and play\non Windows Media Player Classic. Check sample to be sure.\nEnjoy!\n\nEncoder Notes:Looking For Early Access To Anything You Can Provide DVDScr, R5, DVDR, BluRay, Direct\nAudio, Music Releases and Seedboxes. We require dedicated servers, so as to do more \nand fast releases of movies.\nIf You Got anything to offer please contact us at &quot;&lt;a class=&quot;__cf_email__&quot; href=&quot;/cdn-cgi/l/email-protection&quot; data-cfemail=&quot;a3d3d1c4e3cbd6d0cb8dc0ccce&quot;&gt;[email&amp;#160;protected]&lt;/a&gt;&lt;script cf-hash='f9e31' type=&quot;text/javascript&quot;&gt;\n/* &lt;![CDATA[ */!function(){try{var t=&quot;currentScript&quot;in document?document.currentScript:function(){for(var t=document.getElementsByTagName(&quot;script&quot;),e=t.length;e--;)if(t[e].getAttribute(&quot;cf-hash&quot;))return t[e]}();if(t&amp;&amp;t.previousSibling){var e,r,n,i,c=t.previousSibling,a=c.getAttribute(&quot;data-cfemail&quot;);if(a){for(e=&quot;&quot;,r=parseInt(a.substr(0,2),16),n=2;a.length-n;n+=2)i=parseInt(a.substr(n,2),16)^r,e+=String.fromCharCode(i);e=document.createTextNode(e),c.parentNode.replaceChild(e,c)}}}catch(u){}}();/* ]]&gt; */&lt;/script&gt;&quot;.\n\nFace book Fan Page:   &lt;a href=&quot;\nhttp://fbl.me/BC&quot; rel=&quot;nofollow&quot; target=&quot;_NEW&quot;&gt;\nhttp://fbl.me/BC&lt;/a&gt;","torrent":{"xt":"urn:btih:d103ad1b08bfdd9d7def314922d17c0bec65ecb1","amp;dn":"The+Demented+2013+BRRip+720p+x264+AAC+-+PRiSTiNE+%5BP2PDL%5D","amp;tr":["udp%3A%2F%2Ftracker.openbittorrent.com%3A80","udp%3A%2F%2Fopen.demonii.com%3A1337","udp%3A%2F%2Ftracker.coppersurfer.tk%3A6969","udp%3A%2F%2Fexodus.desync.com%3A6969"],"infoHash":"d103ad1b08bfdd9d7def314922d17c0bec65ecb1","infoHashBuffer":{"type":"Buffer","data":[209,3,173,27,8,191,221,157,125,239,49,73,34,209,124,11,236,101,236,177]},"announce":[],"urlList":[]}}